# xmcd
#
# Track frame offsets:
#	150
#	13345
#	34255
#	47415
#	62480
#	73750
#
# Disc length: 1199 seconds
#
# Revision: 1
# Processed by: cddbd v1.5PL3 Copyright (c) Steve Scherf et al.
# Submitted via: EasyCDDAExtractor 6.0.0.1
#
DISCID=4d04ad06
DTITLE=The Avett Brothers - Volume 1
DYEAR=2000
DGENRE=Country
TTITLE0=Kind of In Love
TTITLE1=My Lady and the Mountain
TTITLE2=Those Green Eyes
TTITLE3=Feb 20, 2000
TTITLE4=Let Myself Live
TTITLE5=I Love You Still
EXTD=Recorded in April of 2000
EXTT0=
EXTT1=
EXTT2=
EXTT3=
EXTT4=
EXTT5=
PLAYORDER=
